<?xml version="1.0" encoding="UTF-8"?>
<svg id="Layer_1" data-name="Layer 1" xmlns="http://www.w3.org/2000/svg" xmlns:xlink="http://www.w3.org/1999/xlink" viewBox="0 550 1200 200">
  <defs>
    <style>
      .cls-1 {
        fill: url(#linear-gradient);
      }

      .cls-1, .cls-2, .cls-3, .cls-4 {
        stroke-width: 0px;
      }

      .cls-2 {
        fill: #000;
      }

      .cls-3 {
        fill: url(#linear-gradient-2);
      }

      .cls-4 {
        fill: #fff;
      }
    </style>
    <linearGradient id="linear-gradient" x1="272.15" y1="602.68" x2="175.94" y2="705.12" gradientUnits="userSpaceOnUse">
      <stop offset="0" stop-color="#fea200"/>
      <stop offset=".49" stop-color="#fe1900"/>
      <stop offset="1" stop-color="#fe8f09"/>
    </linearGradient>
    <linearGradient id="linear-gradient-2" x1="273.63" y1="590.91" x2="135.69" y2="737.78" xlink:href="#linear-gradient"/>
  </defs>
  <g>
    <path class="cls-2" d="M382.58,625.41v45.98c0,.6-.02,1.21-.05,1.81-.03.6-.08,1.24-.15,1.91-.07.87-.15,1.73-.25,2.57-.1.84-.25,1.66-.45,2.46l-.1.2c-.6,3.02-1.74,5.9-3.42,8.65-1.75,2.62-4.12,4.8-7.14,6.54-3.09,1.74-7.01,2.62-11.77,2.62h-.91c-4.7,0-8.59-.87-11.67-2.62-3.02-1.74-5.4-3.92-7.14-6.54-.87-1.34-1.59-2.73-2.16-4.17-.57-1.44-1.02-2.93-1.36-4.48v-.1c-.2-.87-.37-1.73-.5-2.57-.13-.84-.2-1.69-.2-2.57-.07-.6-.12-1.21-.15-1.81-.04-.6-.05-1.17-.05-1.71,0-.27.1-.5.3-.7s.4-.3.6-.3h17c.6,0,.91.3.91.91.2,1.68.57,3.12,1.11,4.33.6,1.41,1.88,2.18,3.82,2.31,1.81-.07,3.08-.84,3.82-2.31.8-1.68,1.21-4.02,1.21-7.04v-43.36c0-.67.3-1.01.91-1.01h16.8c.67,0,1.01.34,1.01,1.01Z"/>
    <path class="cls-2" d="M470.1,645.83c1.74,4.63,2.62,9.69,2.62,15.19s-.87,10.46-2.62,15.09c-1.88,4.63-4.36,8.55-7.45,11.77-1.61,1.61-3.35,3.05-5.23,4.33-1.88,1.27-3.89,2.38-6.04,3.32-4.49,1.74-9.22,2.62-14.19,2.62s-9.66-.87-14.08-2.62c-4.36-1.81-8.12-4.36-11.27-7.65-3.09-3.22-5.57-7.14-7.45-11.77-1.74-4.63-2.62-9.66-2.62-15.09s.87-10.56,2.62-15.19c1.81-4.49,4.29-8.35,7.45-11.57,3.15-3.15,6.91-5.6,11.27-7.34,4.23-1.68,8.92-2.52,14.08-2.52s9.86.84,14.08,2.52c2.21.87,4.26,1.93,6.14,3.17,1.88,1.24,3.62,2.63,5.23,4.17,3.15,3.22,5.63,7.08,7.45,11.57ZM443.84,679.13c2.01-1.01,3.76-2.35,5.23-4.02.74-.87,1.39-1.81,1.96-2.82.57-1.01,1.06-2.11,1.46-3.32.4-1.21.72-2.48.96-3.82.23-1.34.35-2.72.35-4.12,0-2.68-.44-5.26-1.31-7.75-.8-2.41-1.95-4.46-3.42-6.14-1.41-1.61-3.12-2.92-5.13-3.92-2.08-.94-4.33-1.41-6.74-1.41s-4.56.47-6.64,1.41c-2.15,1.07-3.89,2.41-5.23,4.02-1.48,1.54-2.62,3.56-3.42,6.04-.8,2.35-1.21,4.93-1.21,7.75s.44,5.6,1.31,7.95c.8,2.41,1.94,4.46,3.42,6.14,1.34,1.68,3.05,3.02,5.13,4.02,2.08.94,4.29,1.41,6.64,1.41s4.56-.47,6.64-1.41Z"/>
    <path class="cls-2" d="M543.64,669.37c.8,2.01,1.21,4.29,1.21,6.84,0,4.02-.77,7.48-2.31,10.36-1.61,2.82-3.69,5.1-6.24,6.84-2.62,1.75-5.53,2.95-8.75,3.62-3.29.74-6.54,1.11-9.76,1.11h-27.06c-.74,0-1.11-.4-1.11-1.21v-71.33c0-.81.37-1.21,1.11-1.21h27.06c2.68,0,5.43.3,8.25.91,2.88.6,5.5,1.61,7.85,3.02,2.48,1.54,4.46,3.56,5.94,6.04,1.47,2.48,2.21,5.67,2.21,9.56,0,4.29-1.11,7.85-3.32,10.66-1.48,1.88-3.32,3.42-5.53,4.63.47.14.91.3,1.31.5.4.2.8.4,1.21.6,1.94,1.07,3.52,2.31,4.73,3.72.74.74,1.36,1.56,1.86,2.46.5.91.96,1.86,1.36,2.87ZM521.81,651.06c1.41-1.07,2.11-2.68,2.11-4.83,0-1.88-.7-3.29-2.11-4.23-1.54-1.01-3.92-1.51-7.14-1.51h-6.94v12.27h7.65c2.95,0,5.1-.57,6.44-1.71ZM507.73,681.85h8.05c.6,0,1.22-.03,1.86-.1.64-.07,1.29-.17,1.96-.3,1.21-.2,2.35-.57,3.42-1.11.87-.47,1.61-1.21,2.21-2.21.6-.87.91-2.04.91-3.52,0-2.41-.84-4.12-2.51-5.13-1.95-1.01-4.59-1.51-7.95-1.51h-7.95v13.88Z"/>
    <path class="cls-2" d="M620.41,624.9c.33.34.5.74.5,1.21v70.32c0,.47-.17.87-.5,1.21-.34.34-.74.5-1.21.5h-16.1c-.54,0-.96-.17-1.26-.5-.3-.33-.45-.74-.45-1.21v-24.95h-21.33v24.95c0,.47-.17.87-.51,1.21-.34.34-.74.5-1.21.5h-15.47c-.47,0-.88-.17-1.21-.5-.34-.33-.5-.74-.5-1.21v-70.32c0-.47.17-.87.5-1.21.34-.33.74-.5,1.21-.5h15.47c.47,0,.88.17,1.21.5.34.34.51.74.51,1.21v27.67h21.33v-27.67c0-.47.15-.87.45-1.21.3-.33.72-.5,1.26-.5h16.1c.47,0,.87.17,1.21.5Z"/>
    <path class="cls-2" d="M712.26,696.33c.13.27.2.47.2.6,0,.8-.4,1.21-1.21,1.21h-17.81c-.54,0-.87-.27-1.01-.8l-4.93-13.18h-24.04l-4.53,13.18c-.2.54-.57.8-1.11.8h-17.4c-.47,0-.8-.17-1.01-.5-.2-.33-.23-.74-.1-1.21l27.77-71.23c.2-.54.57-.81,1.11-.81h15.59c.47,0,.81.27,1.01.81l27.46,71.13ZM675.64,648.35l-6.74,19.52h13.38l-6.64-19.52Z"/>
    <path class="cls-2" d="M781.98,696.33c.2.34.2.74,0,1.21-.27.4-.64.6-1.11.6h-18.81c-.54,0-.91-.23-1.11-.7l-14.19-27.57h-3.52v27.06c0,.34-.12.62-.35.85-.24.24-.52.35-.86.35h-15.69c-.34,0-.64-.12-.91-.35-.27-.23-.4-.52-.4-.85v-71.33c0-.81.44-1.21,1.31-1.21h25.45c3.15,0,6.37.37,9.66,1.11,3.02.67,5.9,1.91,8.65,3.72,2.62,1.88,4.66,4.26,6.14,7.14,1.54,2.95,2.31,6.54,2.31,10.76,0,5.17-1.31,9.49-3.92,12.98-2.35,3.15-5.47,5.47-9.36,6.94l16.7,29.28ZM760.35,646.63c0-1.41-.3-2.58-.91-3.52-.47-.81-1.17-1.47-2.11-2.01-.47-.27-.96-.49-1.46-.65-.5-.17-1.06-.28-1.66-.35-1.21-.2-2.38-.3-3.52-.3h-7.54v14.39h6.54c1.27,0,2.58-.1,3.92-.3,1.21-.2,2.35-.57,3.42-1.11.94-.54,1.74-1.31,2.42-2.31.6-.87.91-2.15.91-3.82Z"/>
    <path class="cls-2" d="M857.93,625c.33.47.4.91.2,1.31l-24.75,70.83c-.2.67-.67,1.01-1.41,1.01h-16.1c-.74,0-1.21-.33-1.41-1.01l-23.74-70.83c-.2-.4-.13-.84.2-1.31.2-.4.6-.6,1.21-.6h17.51c.74,0,1.21.34,1.41,1.01l13.38,45.47,13.68-45.47c.2-.67.67-1.01,1.41-1.01h17.3c.54,0,.91.2,1.11.6Z"/>
    <path class="cls-2" d="M918.35,681.14c.3.27.45.6.45,1v14.5c0,.4-.15.75-.45,1.05s-.62.45-.96.45h-45.37c-.34,0-.65-.15-.96-.45s-.45-.65-.45-1.06v-70.73c0-.4.15-.75.45-1.06.3-.3.62-.45.96-.45h43.76c.33,0,.64.15.91.46.27.3.4.66.4,1.06v14.47c0,.94-.44,1.42-1.31,1.42h-27.26v10.36h25.65c.4,0,.74.15,1.01.45.27.3.4.65.4,1.06v13.68c0,.4-.13.75-.4,1.06-.27.3-.6.45-1.01.45h-25.65v11.87h28.87c.33,0,.65.13.96.4Z"/>
    <path class="cls-2" d="M979.56,657.4c2.15,1.74,3.92,3.86,5.33,6.34,1.47,2.55,2.21,5.77,2.21,9.66,0,4.36-.74,8.05-2.21,11.07-1.48,3.09-3.52,5.67-6.14,7.75-2.62,2.01-5.53,3.52-8.75,4.53-1.61.54-3.24.91-4.88,1.11-1.64.2-3.3.3-4.98.3-4.83,0-9.59-.87-14.29-2.62-4.76-1.88-8.62-4.49-11.57-7.85-.4-.4-.6-.89-.6-1.46s.2-1.09.6-1.56l10.26-10.87c.4-.47.94-.7,1.61-.7s1.21.27,1.61.8c1.41,1.81,3.29,3.32,5.63,4.53,2.35,1.27,4.59,1.91,6.74,1.91.54,0,1.04-.03,1.51-.1.47-.07.94-.17,1.41-.3.94-.2,1.68-.5,2.21-.91.47-.4.87-.91,1.21-1.51.2-.33.33-.7.4-1.11.07-.4.1-.84.1-1.31,0-.94-.17-1.61-.5-2.01-.34-.6-1.01-1.24-2.01-1.91-.94-.54-2.21-1.14-3.82-1.81-.8-.33-1.68-.65-2.62-.96-.94-.3-1.95-.62-3.02-.96-1.14-.33-2.23-.72-3.27-1.16-1.04-.44-2.06-.92-3.07-1.46-2.15-1.01-4.12-2.35-5.94-4.02-1.68-1.68-3.09-3.76-4.23-6.24-1.07-2.35-1.61-5.23-1.61-8.65,0-4.23.84-7.81,2.52-10.76,1.61-2.95,3.72-5.4,6.34-7.34,2.48-1.81,5.4-3.19,8.75-4.12,1.61-.4,3.22-.72,4.83-.96,1.61-.23,3.22-.35,4.83-.35,3.89,0,7.88.77,11.97,2.31,4.16,1.54,7.75,3.76,10.76,6.64.47.47.7.97.7,1.51,0,.6-.2,1.14-.6,1.61l-9.96,10.97c-.47.54-1.04.77-1.71.7-.67,0-1.17-.27-1.51-.8-1.21-1.47-2.72-2.68-4.53-3.62-2.01-.94-3.82-1.41-5.43-1.41-.94,0-1.85.1-2.72.3-.67.07-1.41.34-2.21.8-.67.47-1.17.97-1.51,1.51-.34.47-.5,1.14-.5,2.01,0,.74.13,1.34.4,1.81.13.2.3.42.5.65.2.24.47.45.8.65.4.2.84.42,1.31.65.47.24.97.45,1.51.65,1.34.54,2.68,1.04,4.02,1.51,1.14.34,2.28.72,3.42,1.16,1.14.44,2.31.89,3.52,1.36,1.34.54,2.6,1.14,3.77,1.81,1.17.67,2.3,1.41,3.37,2.21Z"/>
    <path class="cls-2" d="M1058.54,625.61v14.69c0,.8-.4,1.21-1.21,1.21h-17v55.43c0,.34-.12.62-.35.85-.24.24-.52.35-.86.35h-16.8c-.34,0-.62-.12-.86-.35-.24-.23-.35-.52-.35-.85v-55.43h-17.1c-.74,0-1.11-.4-1.11-1.21v-14.69c0-.81.37-1.21,1.11-1.21h53.32c.8,0,1.21.4,1.21,1.21Z"/>
  </g>
  <g>
    <path class="cls-1" d="M294.22,649.3c2.71,42.39-32.39,77.49-74.78,74.78-35.04-2.24-63.34-30.54-65.58-65.58-2.71-42.39,32.39-77.49,74.78-74.78,35.04,2.24,63.34,30.54,65.58,65.58Z"/>
    <path class="cls-3" d="M134.37,724.21c-3.58,3.21-3.88,8.71-.67,12.29,3.21,3.58,8.71,3.88,12.29.67l27.71-24.83-11.62-12.96-27.71,24.83Z"/>
    <path class="cls-4" d="M227.58,622.17c-12.16,1.97-22.86,6.85-31.42,16-8.7,9.29-11.21,19.78-6.58,31.78v.02c.43,1.1.94,2.17,1.54,3.2l.33.56c.37.63,1.25.71,1.73.16,3.72-4.26,8.45-9.24,12.51-12.84,5.81-5.17,12.62-9.2,15.01-9.43-9.67,6.62-18.25,14.16-24.61,24.01-.72,1.11-.5,2.59.49,3.48,5.96,5.36,12.64,8.47,21.02,7.28,6.95-.98,13.1-3.86,18.61-8.08,7.53-5.75,12.71-13.37,16.85-21.76,5.22-10.56,7.69-21.74,7.75-33.63-11.12-1.8-22.15-2.53-33.21-.74Z"/>
  </g>
  <path class="cls-4" d="M239.41,660.93c-.05.2-.1.42-.17.64l-.06-.06c.11-.19.18-.39.23-.58Z"/>
</svg>