<svg viewBox="0 0 1024 1060.382" xmlns="http://www.w3.org/2000/svg"><path d="M468.764 21.333c90.738 0 164.295 73.557 164.295 164.295S559.5 349.923 468.763 349.923c-90.738 0-164.295-73.557-164.295-164.295.103-90.696 73.598-164.192 164.284-164.295h.01zm0 260.324c53.035 0 96.028-42.993 96.028-96.028S521.8 89.6 468.764 89.6c-53.035 0-96.028 42.994-96.028 96.03.052 53.013 43.014 95.976 96.023 96.027h.004zm192.968 145.635L536.576 302.136l48.242-48.242L709.974 379.05zM512 842.4L10.012 340.365l48.242-48.242L512 745.824l453.746-453.7 48.242 48.242zM58.254 1035.32l-48.242-48.24 347.705-347.706 48.242 48.242zm907.492 0L618.04 687.617l48.243-48.242 347.705 347.705zm58.254 10.013H0v-763.22h255.772v68.266H68.266v626.687h887.467V350.38H768.227V282.11H1024zm0 0H0v-763.22h251.22v68.266H68.267v626.687h887.467V350.38H772.778V282.11h251.22z"/></svg>